# xmcd
#
# Track frame offsets: 
#        150
#        17085
#        32120
#        48488
#        63221
#        81366
#        96967
#        114564
#        133016
#        148076
#        166799
#
# Disc length: 2461 seconds
#
# Revision: 0
# Processed by: cddbd v1.5.2PL0 Copyright (c) Steve Scherf et al.
# Submitted via: ExactAudioCopy v0.99pb5
#
DISCID=93099b0b
DTITLE=Dane Rumble - The Experiment
DYEAR=2010
DGENRE=Pop
TTITLE0=Always Be Here
TTITLE1=What Are You Waiting For
TTITLE2=Just Don't Care
TTITLE3=Live A Lie
TTITLE4=Cruel
TTITLE5=Gonna Be Mine
TTITLE6=Don't Know What To Do
TTITLE7=Everything (Take Me Down)
TTITLE8=Breathe
TTITLE9=Let You Down
TTITLE10=One Last Time
EXTD=
EXTT0=
EXTT1=
EXTT2=
EXTT3=
EXTT4=
EXTT5=
EXTT6=
EXTT7=
EXTT8=
EXTT9=
EXTT10=
PLAYORDER=
